<?xml version="1.0" encoding="iso-8859-1"?>
<!-- Generator: Adobe Illustrator 19.0.0, SVG Export Plug-In . SVG Version: 6.00 Build 0)  -->
<svg version="1.1" id="Layer_1" xmlns="http://www.w3.org/2000/svg" xmlns:xlink="http://www.w3.org/1999/xlink" x="0px" y="0px"
	 viewBox="0 0 512.853 512.853" style="enable-background:new 0 0 512.853 512.853;" xml:space="preserve">
<g transform="translate(1)">
	<g>
		<g>
			<path d="M505.88,462.08c0-2.56-1.707-4.267-3.413-5.973l-37.547-25.6L315.587,281.173l11.947-11.947
				c1.707-1.707,2.56-3.413,2.56-5.973s-0.853-4.267-2.56-5.973l-20.553-20.553l22.856-25.584
				c6.316,3.565,13.099,5.914,19.884,6.883c5.12,0.853,8.533,0.853,11.947,0.853c6.827,0,8.533,0,15.36,5.973
				c-3.413,2.56-5.12,6.827-5.12,11.093s1.707,9.387,5.12,12.8l29.867,29.867c4.267,5.12,11.093,7.68,17.92,7.68
				s13.653-2.56,17.92-8.533l60.587-60.587c5.12-4.267,7.68-11.093,7.68-17.92s-2.56-12.8-7.68-17.92l-29.867-29.867
				c-3.413-3.413-7.68-5.12-11.947-5.12s-8.533,2.56-11.947,5.12c-6.827-5.973-6.827-7.68-6.827-14.507c0-3.413,0-7.68-1.707-12.8
				c-1.707-11.947-7.68-23.893-17.067-33.28l-30.72-30.72c-17.92-17.92-26.453-26.453-49.493-36.693
				c-49.493-23.04-99.84-18.773-173.227,14.507c-4.267,1.707-5.973,5.12-5.12,9.387s4.267,6.827,8.533,6.827h11.093
				c37.547,0,57.173,0,91.307,34.133c14.946,14.946,15.377,37.863,1.986,54.725c-1.805,0.272-3.179,1.082-4.546,2.449
				l-27.018,30.155L81.773,10.667c-13.653-13.653-35.84-13.653-49.493,0L9.24,33.707C2.413,40.533-1,49.067-1,58.453
				S2.413,76.373,9.24,83.2l168.963,168.963L9.24,440.747C2.413,447.573-1,456.96-1,466.347c0,9.387,3.413,17.92,10.24,24.747
				l11.947,11.947c6.827,5.973,14.507,9.387,23.893,9.387s17.92-4.267,24.747-10.24l169.511-189.743l16.516,16.516
				c1.707,1.707,3.413,2.56,5.973,2.56s4.267-0.853,5.12-1.707l12.8-12.8L429.08,466.347l25.6,37.547
				c1.707,1.707,3.413,3.413,5.973,3.413l40.96,5.12h0.853c2.56,0,4.267-0.853,6.827-1.707c1.707-1.707,2.56-4.267,2.56-6.827
				L505.88,462.08z M287.427,74.667C260.12,48.213,239.64,39.68,216.6,37.12c48.64-15.36,84.48-14.507,120.32,1.707
				c20.48,8.533,27.307,15.36,45.227,33.28l30.72,30.72c6.827,6.827,11.093,15.36,11.947,23.893c0.853,4.267,0.853,7.68,0.853,10.24
				c0,9.387,0.853,16.213,11.093,26.453c3.413,3.413,8.533,5.12,12.8,5.12c5.12,0,9.387-1.707,11.947-5.12l29.867,29.867
				c1.707,1.707,2.56,3.413,2.56,5.973s-0.853,4.267-2.56,5.973l-60.587,60.587c-3.413,3.413-8.533,3.413-11.947,0l-29.867-29.867
				c3.413-2.56,5.12-6.827,4.267-11.947c0-4.267-1.707-9.387-5.12-12.8c-10.24-10.24-17.067-11.093-26.453-11.093
				c-2.56,0-5.973,0-10.24-0.853c-9.387-0.853-17.067-5.12-23.893-11.947l-36.693-36.693
				C309.613,127.573,307.907,95.147,287.427,74.667z M21.187,71.253c-3.413-3.413-5.12-7.68-5.12-12.8s1.707-9.387,5.12-12.8
				l23.04-23.04c3.413-3.413,8.533-5.12,12.8-5.12s9.387,1.707,12.8,5.12L235.373,188.16l-12.084,13.68l-33.393,37.271
				L21.187,71.253z M57.88,490.24c-3.413,3.413-7.68,5.12-12.8,5.12c-4.267,0-8.533-1.707-11.947-5.12l-11.947-11.093
				c-3.413-3.413-5.12-7.68-5.12-11.947c0-5.12,1.707-9.387,5.973-13.653l258.157-288.829l36.243,36.243l-25.266,28.268
				c-0.713,0.405-1.378,0.936-2.041,1.599l-56.32,63.147c-0.774,0.774-1.363,1.638-1.785,2.547L57.88,490.24z M261.827,311.04
				l-11.093-11.093l16.952-19.234l27.625-30.922l14.304,13.462L261.827,311.04z M304.493,293.12L447,437.333l-11.947,11.947
				l-143.36-144.213L304.493,293.12z M466.627,491.093L447,462.08l14.507-14.507l28.16,19.627l3.413,27.307L466.627,491.093z"/>
			<path d="M201.24,190.72L56.173,45.653c-3.413-3.413-8.533-3.413-11.947,0s-3.413,8.533,0,11.947l145.067,145.067
				c1.707,1.707,3.413,2.56,5.973,2.56s4.267-0.853,5.973-2.56C204.653,199.253,204.653,194.133,201.24,190.72z"/>
		</g>
	</g>
</g>
<g>
</g>
<g>
</g>
<g>
</g>
<g>
</g>
<g>
</g>
<g>
</g>
<g>
</g>
<g>
</g>
<g>
</g>
<g>
</g>
<g>
</g>
<g>
</g>
<g>
</g>
<g>
</g>
<g>
</g>
</svg>
