<?xml version="1.0" encoding="iso-8859-1"?>
<!-- Generator: Adobe Illustrator 19.0.0, SVG Export Plug-In . SVG Version: 6.00 Build 0)  -->
<svg version="1.1" id="Layer_1" xmlns="http://www.w3.org/2000/svg" xmlns:xlink="http://www.w3.org/1999/xlink" x="0px" y="0px"
	 viewBox="0 0 511.999 511.999" style="enable-background:new 0 0 511.999 511.999;" xml:space="preserve">
<g>
	<g>
		<g>
			<path d="M507.495,258.275l-57.704-37.963c-1.632-1.073-3.543-1.646-5.496-1.646h-145.9v-64.025h145.9
				c1.953,0,3.864-0.572,5.496-1.646l57.704-37.963c2.812-1.85,4.504-4.989,4.504-8.354s-1.692-6.505-4.504-8.354l-57.704-37.963
				c-1.632-1.073-3.543-1.646-5.496-1.646h-145.9V12.023c0-5.522-4.478-10-10-10h-64.791c-5.522,0-10,4.478-10,10v127.68h-145.9
				c-1.953,0-3.864,0.572-5.496,1.646L4.504,179.313C1.692,181.161,0,184.302,0,187.667s1.692,6.505,4.504,8.354l57.704,37.963
				c1.632,1.073,3.543,1.646,5.496,1.646h145.9V329c0,5.522,4.478,10,10,10c5.522,0,10-4.478,10-10V22.023h44.791v467.951h-44.791
				V442c0-5.522-4.477-10-10-10c-5.522,0-10,4.478-10,10v57.976c0,5.522,4.478,10,10,10h64.791c5.522,0,10-4.478,10-10V314.592
				h145.9c1.953,0,3.864-0.572,5.496-1.646l57.704-37.963c2.812-1.85,4.504-4.989,4.504-8.354S510.307,260.124,507.495,258.275z
				 M299.407,78.716h141.895l42.504,27.963l-42.504,27.963H299.407V78.716z M213.604,215.63H70.698l-42.504-27.963l42.504-27.963
				h142.906V215.63z M441.302,294.593H299.407v0v-55.926h141.895l42.504,27.963L441.302,294.593z"/>
			<path d="M223.604,413c5.523,0,10-4.478,10-10v-35c0-5.522-4.477-10-10-10c-5.522,0-10,4.478-10,10v35
				C213.604,408.521,218.082,413,223.604,413z"/>
			<path d="M118,190h75c5.522,0,10-4.478,10-10c0-5.522-4.478-10-10-10h-75c-5.522,0-10,4.478-10,10
				C108,185.521,112.478,190,118,190z"/>
			<path d="M79,190h9c5.522,0,10-4.478,10-10c0-5.522-4.478-10-10-10h-9c-5.522,0-10,4.478-10,10C69,185.521,73.478,190,79,190z"/>
			<path d="M394,88h-75c-5.522,0-10,4.478-10,10c0,5.522,4.478,10,10,10h75c5.522,0,10-4.478,10-10C404,92.477,399.522,88,394,88z"
				/>
			<path d="M433,88h-9c-5.522,0-10,4.478-10,10c0,5.522,4.478,10,10,10h9c5.522,0,10-4.478,10-10C443,92.477,438.522,88,433,88z"/>
			<path d="M394,248h-75c-5.522,0-10,4.478-10,10c0,5.522,4.478,10,10,10h75c5.522,0,10-4.478,10-10
				C404,252.477,399.522,248,394,248z"/>
			<path d="M433,248h-9c-5.522,0-10,4.478-10,10c0,5.522,4.478,10,10,10h9c5.522,0,10-4.478,10-10C443,252.477,438.522,248,433,248z
				"/>
		</g>
	</g>
</g>
<g>
</g>
<g>
</g>
<g>
</g>
<g>
</g>
<g>
</g>
<g>
</g>
<g>
</g>
<g>
</g>
<g>
</g>
<g>
</g>
<g>
</g>
<g>
</g>
<g>
</g>
<g>
</g>
<g>
</g>
</svg>
